<?xml version="1.0" encoding="UTF-8"?>
<svg id="icon-report" xmlns="http://www.w3.org/2000/svg" viewBox="0 0 23.024991033677907 32">
    <defs>
        <style>
            .cls-1 {
            fill: #c7c8c9;
            }
        </style>
    </defs>
    <path class="cls-1"
        d="M19.183979193249797,1.300011955097943h-.848431320402597c-.355627557233674-.765828915234124-1.126218992991198-1.300011955097943-2.026179223992585-1.300011955097943H6.715622384822382c-.899960231001387,0-1.67055166675982.534183039863819-2.026179223992585,1.300011955097943h-.848431320403506C1.719660280042262,1.300011955097943,0,3.019672235139296,0,5.140945721416756v23.018042438156954c0,2.121351560384937,1.719660280042262,3.84101184042629,3.84101184042629,3.84101184042629h15.342967352823507c2.121351560384937,0,3.841011840428109-1.719660280041353,3.841011840428109-3.84101184042629V5.140945721416756c0-2.12127348627746-1.719660280043172-3.840933766318813-3.841011840428109-3.840933766318813ZM7.355205469090834,1.279166168537813h8.31458009549533c.529810889873261,0,.959374626403587.429485662421939.959374626403587.959374626402678,0,.52981088987417-.429563736530326.959374626403587-.959374626403587.959374626403587H7.355205469090834c-.529810889873261,0-.959374626402678-.429563736529417-.959374626402678-.959374626403587,0-.529888963980738.429563736529417-.959374626402678.959374626402678-.959374626402678ZM21.106241780870732,28.15898815957371c0,1.061651706530029-.860610881092725,1.922262587619116-1.922262587620935,1.922262587619116H3.84101184042629c-1.061651706529119,0-1.922262587620025-.860610881089087-1.922262587620025-1.922262587619116V5.140945721416756c0-1.061573632421641.860610881090906-1.922184513512548,1.922262587620025-1.922184513512548h.871072811423801c.364371857212973.742562831357645,1.120597657289181,1.258320381977683,2.003537732972291,1.258320381977683h9.593746264032234c.8829400756822,0,1.639165875758408-.515757550620037,2.003537732971381-1.258320381977683h.871072811423801c1.06165170652821,0,1.922262587620935.860610881090906,1.922262587620935,1.922184513512548v23.018042438156954Z" />
    <g>
        <path class="cls-1"
            d="M18.669676341612103,16.209737764364036c.037520761296037-.281734839224555.085968621497159-.560573338979339.085968621497159-.852577018137708,0-3.481400041330744-2.755340397252439-6.299275040749308-6.201326105987391-6.443697058802172v6.218045883833838l6.115357484490232,1.078228193106042Z" />
        <path class="cls-1"
            d="M10.740295050467466,16.889818019375525l.000921562559597-.005002768173654c-.000394955381125,0-.000526607176653.000394955382944-.000921562559597.000394955382944-.148898179046228,0-.269622874173365-.120724695125318-.269622874173365-.269622874174274v-6.443697058801263c-3.445985708729495.144422018051955-6.201326105983753,2.962297017471428-6.201326105983753,6.443697058801263,0,3.573819600737806,2.897129379425678,6.470948980165304,6.470948980157118,6.470948980165304,3.096450195588659,0,5.67722031395806-2.178047280434839,6.313493434506199-5.083470722882339l-6.313493434506199-1.113247570317981Z" />
    </g>
</svg>