<?xml version="1.0" encoding="UTF-8"?>
<svg id="Capa_1" xmlns="http://www.w3.org/2000/svg" viewBox="0 0 17.7666015625 32">
    <defs>
        <style>
            .cls-1 {
            fill: #5b5d5f;
            }
        </style>
    </defs>
    <path class="cls-1"
        d="M8.88330078125,0L0,26.44793701171875c0,3.06610107421875,3.97723388671875,5.55206298828125,8.88330078125,5.55206298828125,4.906005859375,0,8.88330078125-2.4859619140625,8.88330078125-5.55206298828125L8.88330078125,0ZM8.88330078125,15.00616455078125c2.2091064453125,0,4,1.8468017578125,4,4.125,0,2.96588134765625-4,6.875-4,6.875,0,0-4-3.90911865234375-4-6.875,0-2.2781982421875,1.79083251953125-4.125,4-4.125ZM13.21435546875,28.32464599609375c-.2818603515625.2462158203125-.66094970703125.44598388671875-1.084716796875.6025390625-.8533935546875.31640625-2.00128173828125.50213623046875-3.246337890625.50213623046875-1.2451171875,0-2.39300537109375-.18572998046875-3.24639892578125-.50213623046875-.42376708984375-.15655517578125-.8028564453125-.3563232421875-1.084716796875-.6025390625-.27606201171875-.242919921875-.52874755859375-.594970703125-.52874755859375-1.054931640625,0-.6468505859375.4859619140625-1.079833984375.93408203125-1.34222412109375.4908447265625-.2872314453125,1.1536865234375-.5042724609375,1.902099609375-.64141845703125.2646484375-.04876708984375.5147705078125.14984130859375.55889892578125.44378662109375.04388427734375.29400634765625-.1348876953125.5718994140625-.39947509765625.62091064453125-.6920166015625.12738037109375-1.244140625.31854248046875-1.60858154296875.5323486328125-.13409423828125.0711669921875-.255859375.16802978515625-.359619140625.2861328125-.0235595703125.02850341796875-.0423583984375.0614013671875-.055419921875.09722900390625v.00323486328125l.001953125.00860595703125.0155029296875.03564453125c.03814697265625.062744140625.0858154296875.1175537109375.1409912109375.1619873046875.16033935546875.140380859375.42279052734375.29156494140625.7901611328125.426513671875.72998046875.26995849609375,1.76898193359375.447021484375,2.93927001953125.447021484375,1.17022705078125,0,2.20928955078125-.17596435546875,2.939208984375-.447021484375.367431640625-.13604736328125.62982177734375-.2861328125.79022216796875-.426513671875.05548095703125-.04437255859375.103515625-.09918212890625.14190673828125-.1619873046875l.01458740234375-.03564453125.001953125-.00860595703125v-.00433349609375c-.01312255859375-.03582763671875-.0318603515625-.0687255859375-.055419921875-.09716796875-.1038818359375-.1177978515625-.22564697265625-.21429443359375-.359619140625-.28509521484375-.365478515625-.21380615234375-.91656494140625-.40496826171875-1.608642578125-.5323486328125-.26593017578125-.0400390625-.45233154296875-.31201171875-.41632080078125-.6075439453125.03607177734375-.29547119140625.2808837890625-.5025634765625.546875-.4625244140625.0096435546875.00146484375.019287109375.00323486328125.02886962890625.00537109375.7484130859375.13714599609375,1.41131591796875.35418701171875,1.90216064453125.64141845703125.44805908203125.26239013671875.93402099609375.69427490234375.93402099609375,1.34222412109375,0,.4599609375-.252685546875.81201171875-.52874755859375,1.054931640625Z" />
    <ellipse class="cls-1" cx="8.88330078125" cy="19.13116455078125" rx="2" ry="2.0625" />
</svg>